<svg width="363" height="172" viewBox="0 0 363 172" fill="none" xmlns="http://www.w3.org/2000/svg">
<g clip-path="url(#clip0_240_1109)">
<path d="M6.93359 114.499V54.499V35.0156L22.9336 19.0156H164.934L206.934 61.0156H334.434L347.434 38.499L358.434 49.499V151.499H342.517L334.434 165.499H274.434L240.934 131.999H17.0372L6.93359 114.499Z" fill="#202020" stroke="#E7E7E9" stroke-width="0.5"/>
<path d="M166.434 16.5H133.934L144.934 6H358.233V44L346.434 33L331.434 57.5H207.934L166.434 16.5Z" fill="#E7E7E9"/>
<path d="M362.434 171.5V0H36L0 36V115L14.4338 140H237.434L268.934 171.5H362.434Z" stroke="#E7E7E9" stroke-width="0.5"/>
<path d="M358.934 169V154H345.081L335.934 169H358.934Z" fill="#E7E7E9"/>
<path d="M235.434 143.5L263.934 172H14.4336V143.5H235.434Z" fill="#2985FE"/>
<path d="M129.434 6L117.934 16.5H129.434L140.434 6H129.434Z" fill="#E7E7E9"/>
<path d="M113.434 6L101.934 16.5H113.434L124.434 6H113.434Z" fill="#E7E7E9"/>
<path d="M97.4336 6L85.9336 16.5H97.4336L108.434 6H97.4336Z" fill="#E7E7E9"/>
<path d="M81.4336 6L69.9336 16.5H81.4336L92.4336 6H81.4336Z" fill="#E7E7E9"/>
<path d="M65.4336 6L53.9336 16.5H65.4336L76.4336 6H65.4336Z" fill="#E7E7E9"/>
<path d="M49.4336 6L37.9336 16.5H49.4336L60.4336 6H49.4336Z" fill="#E7E7E9"/>
</g>
<defs>
<clipPath id="clip0_240_1109">
<rect width="363" height="172" fill="white"/>
</clipPath>
</defs>
</svg>
