<svg width="368" height="429" viewBox="0 0 368 429" fill="none" xmlns="http://www.w3.org/2000/svg">
<g clip-path="url(#clip0_240_1093)">
<g clip-path="url(#clip1_240_1093)">
<path d="M351.071 19.0003H16.6914L27.8188 7.84375H339.811L351.071 19.0003Z" fill="#E7E7E9"/>
<path d="M159.996 7.84404H99.3252L106.69 0H152.366L159.996 7.84404Z" fill="#E7E7E9"/>
<path d="M268.833 7.84404H208.188L215.554 0H261.229L268.833 7.84404Z" fill="#E7E7E9"/>
<path d="M12.5846 14.9181L11.6309 13.9906L23.6061 2.03906H96.7822V3.36407H24.136L12.5846 14.9181Z" fill="#E7E7E9"/>
<path d="M354.992 14.9181L343.44 3.36407H270.768V2.03906H343.97L355.945 13.9906L354.992 14.9181Z" fill="#E7E7E9"/>
<path d="M365.828 44.5184H364.503V18.8133H3.57665V44.5184H2.25195V17.4883H365.828V44.5184Z" fill="#E7E7E9"/>
<path d="M5.77567 42.082H0V47.8591H5.77567V42.082Z" fill="#E7E7E9"/>
<path d="M368 41.6328H362.225V47.4098H368V41.6328Z" fill="#E7E7E9"/>
<path d="M215.66 34.9011H151.519L146.193 28.7266H221.171L215.66 34.9011Z" fill="#E7E7E9"/>
<path d="M360.608 44.3611H359.946V22.4984H9.1936V44.3611H8.53125V21.8359H360.608V44.3611Z" fill="#E7E7E9"/>
<path d="M148.472 34.7929L143.676 29.9964H109.579L109.499 29.8904L96.5703 16.9583L97.0207 16.5078L109.87 29.3339H143.941L144.047 29.4134L148.949 34.3159L148.472 34.7929Z" fill="#E7E7E9"/>
<path d="M219.105 34.7929L218.628 34.3159L223.635 29.3339H257.706L270.556 16.5078L271.006 16.9583L257.998 29.9964H223.9L219.105 34.7929Z" fill="#E7E7E9"/>
</g>
<path d="M365.828 428.103H2.25195V328.038H3.57665V426.778H364.503V325.918H365.828V428.103Z" fill="#E7E7E9"/>
<path d="M5.77567 323H0V328.777H5.77567V323Z" fill="#E7E7E9"/>
<path d="M368 323H362.225V328.777H368V323Z" fill="#E7E7E9"/>
<path d="M59.3725 423.648H2.91406V427.411H59.3725V423.648Z" fill="#E7E7E9"/>
<path d="M365.112 423.648H308.653V427.411H365.112V423.648Z" fill="#E7E7E9"/>
<path d="M25.4074 427.44L2.91406 404.941V427.44H25.4074Z" fill="#E7E7E9"/>
<path d="M342.698 427.44L365.165 404.941V427.44H342.698Z" fill="#E7E7E9"/>
<path opacity="0.2" d="M360 29H8V421H360V29Z" fill="#E7E7E9"/>
</g>
<defs>
<clipPath id="clip0_240_1093">
<rect width="368" height="429" fill="white"/>
</clipPath>
<clipPath id="clip1_240_1093">
<rect width="368" height="174" fill="white"/>
</clipPath>
</defs>
</svg>
