<?xml version="1.0" encoding="UTF-8"?><svg id="a" xmlns="http://www.w3.org/2000/svg" width="6in" height="1.21in" viewBox="0 0 432 87.16"><path d="M23.66,0C10.64,0,0,10.64,0,23.66V63.27H15.85V23.66c0-4.3,3.51-7.81,7.81-7.81H55.69c-.87,2.45-1.35,5.08-1.35,7.81v15.96c0,13.13,10.76,23.66,23.89,23.66h39.61c0,4.42-3.62,7.92-7.92,7.92H54.35v15.96h55.58c13.01,0,23.66-10.75,23.66-23.88V0H23.66ZM117.85,47.54h-39.61c-4.42,0-7.92-3.62-7.92-7.92v-15.96c0-4.3,3.51-7.81,7.92-7.81h39.61v31.69Z" fill="#ba122b"/><path d="M225.26,.03h12.72V52.19c-.09,6.05-5.05,11.01-11.1,11.01-2.44,0-4.87-.9-6.68-2.35L162.09,14.47V63.2h-12.63V11.04C149.45,4.9,154.42,.03,160.55,.03c2.44,0,4.78,.81,6.68,2.35l58.03,46.39V.03Z" fill="#fff"/><path d="M381.47,28.45c0,1.8,1.44,3.16,3.16,3.16h31.58c8.75,0,15.79,7.13,15.79,15.88s-7.04,15.71-15.79,15.71h-72.64c-10.47,0-19.04-8.4-19.04-18.86V25.38h-63.08c-3.43,0-6.23,2.8-6.23,6.23h50.44v12.72h-50.44c0,3.43,2.8,6.32,6.23,6.32h44.22v12.55h-44.22c-10.38,0-18.95-8.4-18.95-18.86v-12.72c0-10.38,8.57-18.86,18.95-18.86h63.08V.12h12.72V12.75h18.86v12.63h-18.86v18.95c0,3.43,2.8,6.32,6.32,6.32h72.64c1.72,0,3.16-1.44,3.16-3.16,0-1.8-1.44-3.16-3.16-3.16h-31.58c-8.75,0-15.79-7.04-15.79-15.88s7.04-15.7,15.79-15.7h47.38v12.63h-47.38c-1.72,0-3.16,1.36-3.16,3.07Z" fill="#fff"/></svg>