<?xml version="1.0" encoding="UTF-8"?>
<svg id="Layer_1" data-name="Layer 1" xmlns="http://www.w3.org/2000/svg" viewBox="0 0 22.36 11.07">
  <defs>
    <style>
      .cls-1 {
        fill: #e7e7e9;
      }
    </style>
  </defs>
  <g>
    <path class="cls-1" d="M14.91,2.35c.04.07.06.16.06.27,0,.17-.04.32-.12.46l-3.01,5.22c-.08.13-.19.25-.34.34-.15.09-.29.14-.42.14h-6.72c-.19,0-.28-.08-.28-.24,0-.07.03-.15.08-.24l2.49-4.32c.08-.13.19-.25.34-.34.15-.09.29-.14.42-.14h3.36c.13,0,.27-.05.42-.14.15-.09.26-.21.34-.34l1.59-2.76c.1-.17.21-.26.32-.26.06,0,.11.03.14.09l1.33,2.26ZM10.69,4.46c.06-.09.08-.17.08-.24,0-.16-.09-.24-.28-.24-.13,0-.27.05-.42.14s-.26.21-.34.34l-1.93,3.36c-.06.09-.09.16-.09.24,0,.16.09.24.28.24.13,0,.27-.05.42-.14.15-.09.26-.21.34-.34l1.93-3.36Z"/>
    <path class="cls-1" d="M21.73,4.94c-.08.13-.19.25-.34.34s-.29.14-.42.14h-1.98c-.22,0-.33.07-.33.2,0,.03.01.07.04.11l1.11,1.9c.04.07.06.16.06.27,0,.17-.04.32-.12.46-.07.11-.17.21-.31.29s-.28.12-.41.12h-2.4c-.19,0-.28-.08-.28-.24,0-.07.03-.15.08-.24l1.38-2.4c.05-.09.08-.17.08-.24,0-.16-.09-.24-.28-.24-.13,0-.27.05-.42.14-.15.09-.26.21-.34.34l-1.38,2.4c-.08.13-.19.25-.34.34s-.29.14-.42.14h-2.4c-.19,0-.28-.08-.28-.24,0-.07.03-.15.08-.24L16.75.26c.1-.17.21-.26.32-.26.06,0,.11.03.14.09l1.33,2.26c.04.07.06.16.06.27,0,.17-.04.32-.12.46l-.8,1.38c-.05.09-.07.17-.07.24,0,.16.09.24.28.24.13,0,.27-.05.42-.14s.26-.21.33-.34l.28-.48c.08-.13.19-.25.34-.34.15-.09.29-.14.42-.14h2.4c.19,0,.28.08.28.24,0,.07-.03.15-.08.24l-.55.96Z"/>
  </g>
  <g>
    <path class="cls-1" d="M3.88,6.03c-.26.07-.53-.09-.61-.35-.07-.26.09-.53.35-.6.26-.08.53.08.61.34.07.26-.09.54-.35.61Z"/>
    <path class="cls-1" d="M.54,10.85c-.04.07-.02.16.05.2.04.02.08.02.11.01s.07-.03.09-.07l.41-.71c.04-.07.02-.16-.05-.2-.07-.04-.16-.02-.2.05l-.41.71Z"/>
    <path class="cls-1" d="M11.82.62h-6.44c-.13,0-.27.05-.42.14-.14.09-.25.21-.33.34l-1.46,2.51-1.44,2.51c-.34.58-.32,1.04-.21,1.36l-.62.17s-.07.03-.09.07L.02,9.09c-.03.06-.03.12.01.17.04.05.1.07.16.05l.94-.25c-.04.1-.04.21-.01.32.03.13.12.25.24.32.13.07.28.09.41.05.1-.03.2-.08.27-.17l.25.94c.02.06.07.1.13.11h.05s.07-.04.09-.07l.8-1.38s.02-.08.01-.11l-.17-.62s.06-.01.08-.02c.32-.09.69-.31.99-.85l1.45-2.51.88-1.57c.07-.11.16-.21.27-.28h2.11s.1-.01.14-.04c.03-.01.04-.03.05-.04l.35-.62s.01-.03,0-.04c0-.03-.05-.04-.1-.04h-2c-.1,0-.18-.08-.18-.18s.08-.18.18-.18h3.58c.1,0,.19-.03.27-.07.05-.03.08-.06.09-.09l.65-1.14s.02-.06,0-.09c-.03-.05-.09-.07-.19-.07ZM1.99,6.27l.21-.37c.12.28.3.53.54.73-.15.03-.29.12-.37.26l-.25.43-.31.08c-.12-.33-.06-.72.18-1.13ZM1.33,8.7l-.87.23.58-1.01.87-.24-.58,1.02ZM1.83,9.36c-.06.11-.2.15-.32.08-.05-.03-.09-.08-.11-.14,0-.06,0-.13.03-.18l1.19-2.08c.04-.06.09-.1.15-.11.06-.02.12-.01.18.02.11.06.15.21.08.32l-1.2,2.09ZM2.49,10.1l-.24-.87.58-1.01.24.86-.58,1.02ZM4.02,7.44c-.24.41-.55.65-.89.72l-.09-.31.25-.43c.08-.14.09-.31.04-.45.29.1.6.13.9.09l-.21.38ZM5.46,4.93l-1.03,1.79c-.42.12-.88.07-1.26-.15-.39-.22-.66-.59-.77-1.02l1.03-1.79s.04-.07.07-.1c.16.38.44.71.81.92.36.21.79.29,1.21.24-.02.03-.04.07-.06.11ZM5.62,4.5c-.39.09-.81.02-1.16-.18-.35-.2-.62-.53-.74-.92.17-.15.37-.28.59-.36.34-.13.68-.15.92-.06.19.16.35.47.41.82.04.24.03.47-.02.7Z"/>
    <path class="cls-1" d="M.56,9.45l-.28.49c-.04.07-.02.16.05.2.04.02.08.02.11.01s.07-.03.09-.07l.28-.49c.04-.07.02-.16-.05-.2-.07-.04-.16-.02-.2.05ZM1.71,10.76l.28-.49c.04-.07.02-.16-.05-.2-.07-.04-.16-.02-.2.05l-.28.49c-.04.07-.02.16.05.2.04.02.08.02.11.01s.07-.03.09-.07Z"/>
  </g>
</svg>